<svg xmlns="http://www.w3.org/2000/svg" viewBox="0 0 1280 640" font-family="'Segoe UI',Roboto,Helvetica,Arial,sans-serif" role="img" aria-label="Before and after: a 16x FS25 map going from 878,987 allocReg errors to 0 in multiplayer">
  <defs>
    <linearGradient id="bg" x1="0" y1="0" x2="1" y2="1">
      <stop offset="0" stop-color="#0f172a"/>
      <stop offset="1" stop-color="#1e293b"/>
    </linearGradient>
    <linearGradient id="redPanel" x1="0" y1="0" x2="0" y2="1">
      <stop offset="0" stop-color="#3b1418"/>
      <stop offset="1" stop-color="#1c1416"/>
    </linearGradient>
    <linearGradient id="greenPanel" x1="0" y1="0" x2="0" y2="1">
      <stop offset="0" stop-color="#0f2a1c"/>
      <stop offset="1" stop-color="#111c17"/>
    </linearGradient>
    <linearGradient id="arrow" x1="0" y1="0" x2="1" y2="0">
      <stop offset="0" stop-color="#ef4444"/>
      <stop offset="1" stop-color="#22c55e"/>
    </linearGradient>
  </defs>

  <rect x="0" y="0" width="1280" height="640" rx="26" fill="url(#bg)"/>

  <!-- Header -->
  <text x="64" y="66" fill="#38bdf8" font-size="20" font-weight="700" letter-spacing="3">FS25 · 16× MAP · MULTIPLAYER FIX</text>
  <text x="64" y="120" fill="#f1f5f9" font-size="46" font-weight="800">878,987 <tspan fill="#64748b" font-weight="600">allocReg errors</tspan> → <tspan fill="#4ade80">0</tspan></text>
  <text x="64" y="152" fill="#94a3b8" font-size="19">Same 16× map, same hardware — one tool closes GIANTS' hidden multiplayer ceiling.</text>

  <!-- BEFORE panel -->
  <rect x="64" y="188" width="512" height="368" rx="18" fill="url(#redPanel)" stroke="#ef4444" stroke-opacity="0.5" stroke-width="1.5"/>
  <rect x="64" y="188" width="512" height="6" rx="3" fill="#ef4444"/>
  <text x="92" y="232" fill="#f87171" font-size="17" font-weight="700" letter-spacing="2">BEFORE — VANILLA 16×</text>

  <!-- broken tile grid (overflow) -->
  <g transform="translate(92,258)">
    <g fill="none" stroke="#ef4444" stroke-opacity="0.55" stroke-width="2">
      <rect x="0" y="0" width="40" height="40" rx="4"/><rect x="46" y="0" width="40" height="40" rx="4"/><rect x="92" y="0" width="40" height="40" rx="4"/><rect x="138" y="0" width="40" height="40" rx="4"/>
      <rect x="0" y="46" width="40" height="40" rx="4"/><rect x="46" y="46" width="40" height="40" rx="4"/><rect x="92" y="46" width="40" height="40" rx="4"/><rect x="138" y="46" width="40" height="40" rx="4"/>
    </g>
    <g fill="#ef4444" fill-opacity="0.9" font-size="30" font-weight="800" text-anchor="middle">
      <text x="20" y="30">×</text><text x="66" y="30">×</text><text x="112" y="76">×</text><text x="158" y="30">×</text><text x="20" y="76">×</text>
    </g>
    <text x="196" y="26" fill="#fca5a5" font-size="16">16384px density →</text>
    <text x="196" y="50" fill="#fca5a5" font-size="16" font-weight="700">tile registry OVERFLOW</text>
    <text x="196" y="76" fill="#94a3b8" font-size="15">(fixed capacity, not RAM)</text>
  </g>

  <text x="92" y="410" fill="#ef4444" font-size="60" font-weight="800">878,987</text>
  <text x="94" y="440" fill="#cbd5e1" font-size="18" letter-spacing="1">Error in allocReg</text>

  <g font-size="15" font-weight="600">
    <rect x="92" y="470" width="180" height="34" rx="17" fill="#ef4444" fill-opacity="0.14"/>
    <text x="182" y="492" fill="#f87171" text-anchor="middle">262 GB RAM still failed</text>
    <rect x="284" y="470" width="176" height="34" rx="17" fill="#ef4444" fill-opacity="0.14"/>
    <text x="372" y="492" fill="#f87171" text-anchor="middle">client disconnect</text>
  </g>

  <!-- Arrow -->
  <g transform="translate(600,372)">
    <rect x="0" y="-9" width="80" height="18" rx="9" fill="url(#arrow)"/>
    <path d="M78 -20 L104 0 L78 20 Z" fill="#22c55e"/>
  </g>

  <!-- AFTER panel -->
  <rect x="704" y="188" width="512" height="368" rx="18" fill="url(#greenPanel)" stroke="#22c55e" stroke-opacity="0.5" stroke-width="1.5"/>
  <rect x="704" y="188" width="512" height="6" rx="3" fill="#22c55e"/>
  <text x="732" y="232" fill="#4ade80" font-size="17" font-weight="700" letter-spacing="2">AFTER — BIGMAP OPTIMIZER</text>

  <!-- clean tile grid -->
  <g transform="translate(732,258)">
    <g fill="#22c55e" fill-opacity="0.16" stroke="#22c55e" stroke-opacity="0.7" stroke-width="2">
      <rect x="0" y="0" width="40" height="40" rx="4"/><rect x="46" y="0" width="40" height="40" rx="4"/>
      <rect x="0" y="46" width="40" height="40" rx="4"/><rect x="46" y="46" width="40" height="40" rx="4"/>
    </g>
    <path d="M12 20 l7 8 l14 -16 M58 20 l7 8 l14 -16 M12 66 l7 8 l14 -16 M58 66 l7 8 l14 -16" fill="none" stroke="#4ade80" stroke-width="3.5" stroke-linecap="round" stroke-linejoin="round"/>
    <text x="112" y="26" fill="#86efac" font-size="16">8192px density →</text>
    <text x="112" y="50" fill="#86efac" font-size="16" font-weight="700">registry fits</text>
    <text x="112" y="76" fill="#94a3b8" font-size="15">(exact 4× map spec)</text>
  </g>

  <text x="732" y="410" fill="#22c55e" font-size="60" font-weight="800">0</text>
  <text x="782" y="410" fill="#cbd5e1" font-size="22" font-weight="600">errors</text>
  <text x="734" y="440" fill="#cbd5e1" font-size="18" letter-spacing="1">playable in multiplayer</text>

  <g font-size="15" font-weight="600">
    <rect x="732" y="470" width="150" height="34" rx="17" fill="#22c55e" fill-opacity="0.14"/>
    <text x="807" y="492" fill="#4ade80" text-anchor="middle">MP stable · x4+</text>
    <rect x="894" y="470" width="204" height="34" rx="17" fill="#22c55e" fill-opacity="0.14"/>
    <text x="996" y="492" fill="#4ade80" text-anchor="middle">fields &amp; crops preserved</text>
  </g>

  <!-- Footer method strip -->
  <rect x="64" y="580" width="1152" height="34" rx="10" fill="#0b1220" stroke="#334155" stroke-width="1"/>
  <text x="88" y="602" fill="#cbd5e1" font-size="15">
    <tspan font-weight="700" fill="#38bdf8">How:</tspan> power-of-2 density layers resampled to 8192px (nearest-neighbour, bit-fields intact)  ·  heightmap 2ⁿ+1 grid left byte-exact  ·  99.9% pixel-identical
  </text>
</svg>
